# xmcd
#
# Track frame offsets:
#	150
#	10524
#	22043
#	40664
#	51632
#	61380
#	73136
#	89284
#	104917
#	119165
#	132531
#
# Disc length: 1947 seconds
#
# Revision: 1
# Processed by: cddbd v1.5.2PL0 Copyright (c) Steve Scherf et al.
# Submitted via: audiograbber 1.83.01
#
DISCID=a707990b
DTITLE=Bobby Bare - Me And McDill
DYEAR=1977
DGENRE=Country
TTITLE0=If You Think I'm Crazy Now
TTITLE1=Hillbilly Hell
TTITLE2=Don't Think You're Too Good
TTITLE3=Till I Get On My Feet
TTITLE4=Don't Turn Out The Light
TTITLE5=Wilma Lou
TTITLE6=Look Who I'm Cheating On To
TTITLE7=You Made A Believer Out Of 
TTITLE8=The Woman In Every Man's Life
TTITLE9=Can't Seem To Get Nowhere
TTITLE10=Tired Of The Road Joe
EXTD=
EXTT0=
EXTT1=
EXTT2=
EXTT3=
EXTT4=
EXTT5=
EXTT6=
EXTT7=
EXTT8=
EXTT9=
EXTT10=
PLAYORDER=
